<svg class="main-svg" xmlns="http://www.w3.org/2000/svg" xmlns:xlink="http://www.w3.org/1999/xlink" width="1465" height="396" style="" viewBox="0 0 1465 396"><rect x="0" y="0" width="1465" height="396" style="fill: rgb(255, 255, 255); fill-opacity: 1;"/><defs id="defs-60467c"><g class="clips"><clipPath id="clip60467cxyplot" class="plotclip"><rect width="1345" height="276"/></clipPath><clipPath class="axesclip" id="clip60467cx"><rect x="60" y="0" width="1345" height="396"/></clipPath><clipPath class="axesclip" id="clip60467cy"><rect x="0" y="60" width="1465" height="276"/></clipPath><clipPath class="axesclip" id="clip60467cxy"><rect x="60" y="60" width="1345" height="276"/></clipPath></g><g class="gradients"/></defs><g class="bglayer"/><g class="layer-below"><g class="imagelayer"/><g class="shapelayer"/></g><g class="cartesianlayer"><g class="subplot xy"><g class="layer-subplot"><g class="shapelayer"/><g class="imagelayer"/></g><g class="gridlayer"><g class="x"><path class="xgrid crisp" transform="translate(230.3,0)" d="M0,60v276" style="stroke: rgb(238, 238, 238); stroke-opacity: 1; stroke-width: 1px;"/><path class="xgrid crisp" transform="translate(404.07,0)" d="M0,60v276" style="stroke: rgb(238, 238, 238); stroke-opacity: 1; stroke-width: 1px;"/><path class="xgrid crisp" transform="translate(577.84,0)" d="M0,60v276" style="stroke: rgb(238, 238, 238); stroke-opacity: 1; stroke-width: 1px;"/><path class="xgrid crisp" transform="translate(751.61,0)" d="M0,60v276" style="stroke: rgb(238, 238, 238); stroke-opacity: 1; stroke-width: 1px;"/><path class="xgrid crisp" transform="translate(925.39,0)" d="M0,60v276" style="stroke: rgb(238, 238, 238); stroke-opacity: 1; stroke-width: 1px;"/><path class="xgrid crisp" transform="translate(1099.16,0)" d="M0,60v276" style="stroke: rgb(238, 238, 238); stroke-opacity: 1; stroke-width: 1px;"/><path class="xgrid crisp" transform="translate(1272.93,0)" d="M0,60v276" style="stroke: rgb(238, 238, 238); stroke-opacity: 1; stroke-width: 1px;"/></g><g class="y"><path class="ygrid crisp" transform="translate(0,262.64)" d="M60,0h1345" style="stroke: rgb(238, 238, 238); stroke-opacity: 1; stroke-width: 1px;"/><path class="ygrid crisp" transform="translate(0,202.69)" d="M60,0h1345" style="stroke: rgb(238, 238, 238); stroke-opacity: 1; stroke-width: 1px;"/><path class="ygrid crisp" transform="translate(0,142.74)" d="M60,0h1345" style="stroke: rgb(238, 238, 238); stroke-opacity: 1; stroke-width: 1px;"/><path class="ygrid crisp" transform="translate(0,82.78999999999999)" d="M60,0h1345" style="stroke: rgb(238, 238, 238); stroke-opacity: 1; stroke-width: 1px;"/></g></g><g class="zerolinelayer"><path class="yzl zl crisp" transform="translate(0,322.59)" d="M60,0h1345" style="stroke: rgb(68, 68, 68); stroke-opacity: 1; stroke-width: 1px;"/></g><path class="xlines-below"/><path class="ylines-below"/><g class="overlines-below"/><g class="xaxislayer-below"/><g class="yaxislayer-below"/><g class="overaxes-below"/><g class="plot" transform="translate(60,60)" clip-path="url('#clip60467cxyplot')"><g class="scatterlayer mlayer"><g class="trace scatter trace0b46dd" style="stroke-miterlimit: 2; opacity: 1;"><g class="fills"/><g class="errorbars"/><g class="lines"><path class="js-line" d="M0,15.59L0.35,18.08L0.7,17.89L1.04,17.01L1.39,16.01L1.74,17.97L2.09,18.95L2.43,22.23L2.78,22.77L3.13,20.31L3.48,21.01L3.82,19.43L5.91,13.8L6.26,13.89L7.65,18.9L7.99,20.92L8.69,21.35L9.04,22.87L9.73,21.65L10.08,23.63L10.43,23.54L10.77,21.81L11.82,18.52L12.16,18.5L13.21,21.24L13.55,19.36L15.29,28.09L15.64,27.37L15.99,26.9L16.33,25.1L16.68,26.34L17.03,27.58L17.72,26.75L18.07,27.35L19.11,28.85L19.46,28.09L19.81,28.99L20.16,28.22L20.51,28.1L21.2,29.42L21.55,28.05L21.9,26.86L22.24,28.09L22.59,28.07L24.68,33.58L25.02,34.53L26.07,37.16L26.41,36.71L27.11,37L27.46,36.29L27.8,38.03L28.15,37L28.5,37.51L29.19,36.26L29.54,37.04L29.89,38.44L30.24,37.68L33.71,44.03L34.41,44.38L34.75,42.31L36.49,38.4L36.84,38.2L37.88,35.68L38.23,36.1L39.27,39.26L39.62,38.91L39.97,38.86L40.32,37.87L40.66,38.91L41.01,39.66L41.36,39.58L41.71,41.1L42.4,41.76L42.75,43.19L44.49,46.81L44.83,47.26L45.18,48.28L45.53,47.01L45.88,46.37L46.92,45.13L47.27,47.57L48.66,44.37L49,45.09L50.74,40.36L51.09,41.33L51.44,40.02L51.78,41.72L52.48,40.23L52.83,40.97L53.17,40.64L53.52,41.42L53.87,41.16L54.22,41.03L55.26,39.06L55.61,39.38L58.39,45.88L58.74,45.97L59.78,48.5L60.13,47.85L60.47,47.57L60.82,48.4L61.17,47.56L61.52,45.7L62.56,47.91L62.91,47.57L63.95,43.53L67.42,48L67.77,49L68.12,48.49L68.47,46.76L69.86,45.35L70.2,46.18L71.25,44.43L71.59,45.06L73.33,49.29L73.68,49.87L74.72,49.73L75.07,48.91L75.76,46.28L76.11,47.47L76.46,46.76L76.81,47.39L77.16,46.44L79.24,52.61L79.59,51.61L79.94,52.03L80.28,50.15L82.02,46.78L82.37,47.55L82.72,47.96L83.06,46.36L84.45,49.38L84.8,48.44L85.15,48.06L85.5,49.44L86.89,46.11L87.23,46.65L87.58,46.75L87.93,44.99L88.28,46.5L88.62,46.4L88.97,44.91L89.32,44.84L89.67,46.45L90.01,46.14L90.36,44.57L91.4,48.16L91.75,47.95L92.1,46.81L92.79,49.18L93.14,48.55L93.49,48.86L93.84,51.47L94.18,49.77L94.53,49.43L96.27,44.84L96.62,45.41L97.66,46.5L101.14,55.63L102.18,53.64L102.53,54.04L103.57,48.27L103.92,48.79L104.26,47.42L105.65,53.51L106,53.28L106.35,53.94L106.7,53.53L107.04,56.12L107.74,57.18L108.09,56.9L108.43,54.38L109.48,52.73L109.82,53.61L110.17,54.52L110.52,53.96L110.87,52.01L111.91,53.73L112.26,55.36L112.95,57.28L113.3,56.83L113.65,56.29L113.99,56.19L114.34,57.28L114.69,57.14L115.04,55.79L115.39,56.1L115.73,53.81L116.08,53.4L116.43,54.04L116.78,55.2L117.12,56.06L117.47,54.32L117.82,54.87L118.17,53.31L118.51,54.94L118.86,54.49L119.21,53.59L119.56,53.03L119.9,50.84L120.6,49.26L120.95,50.07L121.29,49.5L121.64,50.62L121.99,49.23L122.34,49.36L123.03,50.81L123.38,52.14L124.07,51.51L124.42,51.19L125.46,50.89L125.81,51.73L126.51,50.37L126.85,51.18L127.2,51.66L129.98,61.3L130.33,60.6L130.68,59.41L131.37,57.98L134.85,58.65L135.89,59.64L136.24,59.45L136.59,58.9L136.93,60.39L137.28,60.14L137.63,61.16L138.32,59.98L138.67,60.21L139.02,60.8L140.41,54.74L140.76,54.91L141.1,55.72L142.15,55.44L142.49,55.56L143.54,56.03L143.88,57.9L144.93,60.82L145.27,60.49L145.62,58.7L146.32,58.15L146.66,59.37L147.36,60.41L147.71,59.24L148.4,57.49L148.75,57.67L149.1,59.39L149.79,59.85L150.14,59.04L151.18,55.8L151.53,56.6L152.57,56.19L152.92,55.52L153.61,56.18L153.96,57.03L155.01,57.78L155.35,56.99L155.7,56.48L156.05,57.31L156.74,57.96L157.09,57.42L157.79,57.81L158.13,58.54L158.48,58.78L158.83,57.92L159.18,58.49L159.52,56.68L159.87,56.44L160.22,57.09L160.57,58.02L161.61,56.22L161.96,55.02L163,56.54L163.35,57.99L164.39,57.97L164.74,57.33L165.08,57.94L168.56,55.92L169.6,58.21L169.95,56.13L170.3,55.92L170.64,56.83L172.03,60.09L172.38,59.02L172.73,60.44L173.08,58.7L174.12,62.1L174.47,61.42L174.82,61.3L175.16,59.93L175.51,59.62L175.86,60.36L176.21,60.59L176.55,62.84L178.29,60.2L178.64,61.76L178.99,61.19L179.33,62.26L179.68,63.68L180.03,61.5L180.72,61.79L181.07,61.97L181.77,61.4L182.11,59.78L182.46,60.54L182.81,59.97L183.16,58.38L183.5,60.7L183.85,59.77L184.2,58.46L184.55,57.96L184.89,58.87L185.59,60.35L185.94,60.76L187.33,58.62L187.67,59.59L188.37,58.9L188.72,60.5L189.41,58.02L189.76,59.98L191.15,58.71L191.5,58.67L191.84,59.01L192.19,58.34L192.54,57.94L193.24,60.04L193.58,59.25L193.93,60.24L196.02,65.9L196.36,65.43L196.71,64.04L197.06,64.81L197.41,63.13L197.75,62.76L198.1,61.15L198.45,61.78L198.8,59.56L202.97,69.69L203.31,68.64L204.36,66.19L204.7,67.34L205.05,66.61L205.4,63.73L206.79,62.29L207.14,60.42L207.83,59.25L208.18,59.38L208.53,60.39L209.57,63.32L209.92,62.55L210.61,65.83L210.96,65.35L211.31,65.36L211.66,66.15L212,65.72L212.35,65.39L213.05,62.78L213.39,64.48L214.09,65.42L214.44,67.15L214.78,67.01L215.13,67.71L215.83,67.25L216.17,69.36L217.56,71.59L217.91,71.41L218.26,71.52L218.61,69.37L219.3,68.93L219.65,70.79L220,72.17L220.34,70.94L220.69,70.77L221.39,70.28L221.73,71.97L222.43,74L222.78,73.4L223.12,71.79L223.47,70.48L223.82,71.71L224.17,71.17L224.51,70.76L224.86,72.45L225.21,72.16L225.56,73.22L225.9,73.02L226.25,74.13L226.95,76.59L227.29,75.57L227.64,76.28L227.99,77.33L228.34,75.84L229.03,73.61L229.38,76.52L230.07,77.73L230.42,77.07L230.77,78.48L231.12,77.33L231.47,76.85L232.16,78.69L232.51,81.38L235.98,87.11L236.33,86.57L236.68,85.95L237.72,84.67L238.07,85.19L239.11,81.25L239.46,80.94L240.85,83.57L241.2,81.04L241.54,78.43L241.89,81.39L242.24,80.89L243.98,77.19L244.32,77.85L245.71,84.07L246.06,83.51L246.76,84.46L247.1,83.02L247.8,83.12L248.15,81.55L248.49,81.31L248.84,83.44L250.23,83.9L250.58,85.85L251.28,87.53L251.62,91.81L251.97,92.51L252.32,90.24L253.36,91.94L253.71,92.02L254.4,92.24L254.75,90.69L255.1,87.16L255.45,87.74L255.79,89.99L256.14,88.92L256.49,90.04L256.84,89.5L257.53,89.24L257.88,90.51L258.23,90.96L258.57,92.75L258.92,92.2L259.27,92.35L259.62,92.87L259.96,92.5L260.31,91.05L261.01,94.09L261.35,92.29L262.05,91.94L262.4,92.77L263.44,92.55L263.79,97.31L264.83,94.76L265.18,95.7L265.52,96.62L265.87,95.3L266.22,94.73L269.7,98.64L270.04,98.35L270.39,98.88L270.74,99.37L271.09,96.84L271.43,97.34L271.78,99.08L272.13,96.77L272.48,100.3L273.52,96.76L273.87,98.04L274.91,101.83L275.26,101.67L275.6,105.26L275.95,102.25L276.3,106.53L276.99,109.24L277.34,106.55L278.38,108.44L278.73,109.32L279.08,107.5L279.77,107.73L280.12,107.08L281.16,104.5L281.51,106.19L281.86,105.4L282.21,107.05L282.55,107.97L282.9,106.79L283.25,103.24L283.6,102.14L283.94,102.48L284.29,104.6L284.64,104.57L284.99,101.98L285.33,104.83L285.68,102.31L286.03,100.4L287.07,106.97L287.42,106.74L287.77,107.38L288.11,108.27L288.46,106.01L288.81,104.87L289.16,107.39L289.51,109.01L289.85,107.93L290.2,107.99L291.24,105.2L291.59,103.31L291.94,106.89L292.29,106.54L292.63,103.75L292.98,101.99L293.33,102.3L293.68,102.34L294.37,100.61L294.72,101.33L295.07,102.21L296.46,104.5L296.8,104.1L297.15,103.53L298.89,109.89L299.24,110.06L299.58,109.15L299.93,112.34L304.1,113.33L304.45,116.45L305.84,113.55L306.19,115.43L306.88,116.87L307.23,121.08L308.27,119.15L308.62,117.49L309.32,121.67L309.66,118.41L310.71,113.32L311.05,114.85L311.75,114.39L312.1,117.19L312.44,116.48L312.79,118.33L313.83,127.53L314.18,124.85L316.27,116.6L316.61,116.52L317.31,111.91L317.66,114.08L318,114.65L318.7,118.32L319.05,116.58L320.44,120.76L320.78,119.14L322.17,114.36L322.52,116.47L323.22,117.49L323.56,118.98L323.91,117.51L324.26,123.09L324.95,121.88L325.3,123.1L326.69,130.93L327.04,130.48L327.39,130.58L327.74,127.94L328.78,132.78L329.13,131.38L330.86,125.45L331.21,127.13L331.56,127.96L331.91,126.91L332.25,125.91L333.64,130.68L337.12,130.74L338.51,125.77L338.86,126.71L339.2,124.81L339.55,127.26L340.59,129.44L340.94,128.43L341.64,124.09L341.98,126.39L342.33,125.43L342.68,126.74L343.37,119.27L343.72,121.44L344.07,123.24L345.81,133.26L346.16,132.46L347.2,133.35L347.55,131.12L347.89,130.04L348.24,130.26L348.59,131.79L351.72,144.14L352.06,141.49L352.41,141.75L352.76,140.86L353.11,141.21L353.45,139L353.8,142.64L354.15,142.3L354.5,141.17L355.54,142.82L355.89,141.13L356.93,143.78L357.28,142.08L357.97,145.18L358.32,142.43L358.67,142.72L359.01,145.21L360.06,142.67L360.4,144.75L360.75,144.61L361.1,141.49L362.49,134.98L362.84,136.61L363.18,138.44L363.53,137.11L363.88,134.72L365.97,143.77L366.31,144.34L366.66,143.44L367.01,145.22L367.36,145.88L370.83,141.91L371.53,141.17L371.87,142.87L373.96,152.51L374.31,150.21L375.35,154.18L375.7,155.15L376.74,148.49L377.09,150.6L377.78,156.44L378.13,155.21L378.48,154.27L379.52,151.51L379.87,151.52L380.21,152.39L380.56,151.53L380.91,151.06L381.6,147.87L381.95,148.24L382.3,151.41L382.65,151.27L382.99,153.2L383.69,154.97L384.04,154.47L384.39,152.4L385.43,154.01L385.78,153.64L386.12,156.74L386.47,155.51L386.82,153.6L387.51,151.59L387.86,153.25L389.25,155.57L389.6,153.06L390.99,160.18L391.34,157.77L392.73,153.27L393.07,154.68L393.77,155.5L394.12,156.17L394.46,151.59L394.81,153.66L395.16,154.92L395.51,155.7L395.85,154.6L396.2,155.28L396.55,154.33L396.9,154.32L397.59,153.97L397.94,158.27L398.29,158.62L398.63,160.89L400.02,167.68L400.37,167.19L400.72,166.55L401.07,166.59L404.54,173.15L405.24,171.72L405.59,169.5L407.32,162.16L407.67,161.51L408.37,158.2L408.71,159.84L409.06,160.3L409.41,158.65L409.76,161.05L410.8,165.88L411.15,163.95L411.49,163.21L411.84,165.98L412.19,165.91L412.54,167.26L413.58,170.07L413.93,168.46L414.27,168.48L414.62,170.29L414.97,170.89L415.32,167.39L416.36,163.66L416.71,164.54L417.05,164L417.4,166.14L418.1,166L418.44,168.54L418.79,168.11L419.14,171.62L419.49,174.81L420.18,174.69L420.53,176.25L420.88,174.26L421.22,175.07L421.57,175.04L421.92,173.91L422.27,176.88L422.61,174.33L422.96,175.01L423.31,175.22L424.7,168.72L425.05,169.41L425.74,171.44L426.09,170.63L426.44,167.48L426.79,167.82L427.13,164.84L427.48,164.18L427.83,161.38L428.18,161.8L428.52,159.15L429.57,155.91L429.91,156.3L430.26,157.05L430.61,160.49L432.35,173L432.69,169.74L433.04,171.54L433.39,170.84L433.74,168.29L434.08,168.97L434.43,168.09L434.78,166.28L438.25,170.19L438.6,167L439.99,161.53L440.34,161.71L440.69,162.41L441.38,163.58L441.73,162.99L443.12,168.52L443.47,169.17L444.51,174.41L444.86,176.07L445.9,175.39L446.25,172.52L446.94,174.16L447.29,172.7L448.33,171.63L448.68,173.77L449.03,173.8L449.38,175.71L450.42,177.61L450.77,176.36L451.81,179.91L452.16,179.78L452.5,178.33L452.85,177.51L453.2,180.58L453.89,182.16L454.24,184.17L455.63,180.31L455.98,182.26L456.33,182.75L456.67,178.66L457.37,180.33L457.72,177.53L458.06,176.54L458.41,178.66L459.11,177.58L459.45,178.41L459.8,177.52L460.15,181.91L460.84,179.62L461.19,183.72L462.24,181.5L462.58,183.91L462.93,183.82L463.28,186.66L465.02,179.36L465.36,177.34L465.71,177.86L466.06,176.21L466.41,175.64L466.75,172.83L468.49,180.34L471.97,179.2L472.66,180.14L473.01,179.58L475.44,188.08L475.79,186.46L476.83,187.82L477.18,186.01L477.53,185.83L477.87,184.01L478.57,189.59L478.92,185.73L479.26,185.74L479.61,186.92L479.96,187.62L480.31,185.87L481.35,189.67L481.7,189.56L482.05,188.26L482.39,190.73L483.78,194.14L484.13,193.04L484.83,194.59L485.17,191.01L486.22,195.64L486.56,195.3L486.91,192.09L487.26,192.26L487.61,193.35L488.3,191.3L488.65,195.91L489.34,188.07L489.69,188.34L490.04,189.32L490.73,192.68L491.08,191.39L491.43,189.86L491.78,188.8L492.12,185.31L492.47,185.16L492.82,186.8L493.51,183L493.86,183.81L494.21,183.51L495.95,190.22L496.29,193.3L497.34,195.74L497.68,193.9L498.38,195.88L498.73,193.95L499.07,194.76L499.42,194.23L499.77,194.31L500.47,193.55L500.81,191.48L501.16,193.56L501.51,190.51L502.2,192.51L505.68,199.09L507.42,203.36L507.76,202.33L508.81,206.09L509.15,205.97L509.5,205.33L509.85,207.33L510.89,204.92L511.24,206.93L511.59,206.72L511.93,207.47L512.98,211.05L513.32,210.08L513.67,211.1L515.41,204.11L515.76,202.95L516.1,203.28L516.45,201.8L518.54,209.84L518.89,208.44L520.97,201.33L521.32,202.06L522.01,197.28L522.36,198.18L522.71,199.39L523.06,202.39L523.4,201.81L523.75,200.5L525.49,204.63L525.84,202.79L526.18,204.14L526.53,201.57L527.92,207.22L528.27,207.01L528.62,207.59L528.96,207.16L529.31,211.04L529.66,209.26L530.01,211.11L530.35,212.11L530.7,211.63L531.05,209.84L531.74,207.9L532.09,208.85L532.44,207.71L533.83,202L534.18,202.67L534.52,202.96L534.87,205.35L535.57,206.11L535.91,208.46L539.74,203.04L540.09,201.58L542.52,213.21L542.87,213.03L543.56,211.53L543.91,213.03L545.65,208.71L545.99,208.85L547.04,213.92L547.38,212.23L548.08,214.61L548.43,213.44L549.12,217.11L549.47,216.11L549.82,215.27L551.55,209.54L551.9,209.46L553.64,202.14L553.99,204.5L554.33,205.04L554.68,203.71L555.03,203.76L555.38,202.99L556.77,206.94L557.11,206.8L557.81,202.18L558.16,203.82L559.2,202.97L559.55,204.64L560.94,210.67L561.29,212.58L561.63,213.23L561.98,209.71L563.02,209.61L563.37,208.66L563.72,208.95L564.07,207.79L565.11,204.66L565.46,210.42L567.19,207.93L567.54,209.08L568.58,212.51L568.93,211.53L569.63,214.3L573.1,215.7L573.8,213.6L574.14,214.93L574.49,213.59L574.84,214.55L575.19,215.32L575.53,215.6L575.88,213.93L576.23,213.71L576.58,214.41L577.97,218.21L578.32,216.17L578.66,215.79L579.01,217.13L580.05,219.71L580.4,219.24L581.1,215.9L581.44,216.61L581.79,218.41L582.49,218.21L582.83,219.14L583.18,221.38L583.53,221.07L583.88,220.74L584.57,223.91L584.92,223.39L585.27,223.07L585.61,223.12L585.96,222.09L586.31,222.09L586.66,218.67L587,218.06L587.35,219.11L587.7,218.23L588.05,219.65L588.74,221.67L589.09,220.67L589.44,220.02L590.83,217.11L591.17,217.87L591.52,218.11L592.56,216.27L592.91,216.55L593.26,215.41L593.61,217.36L593.95,217.81L594.3,220.63L594.65,219.99L595,217.49L595.69,218.1L596.04,219.89L597.43,224.4L597.78,221.82L598.47,222.38L598.82,221.27L599.52,221.05L599.86,219.92L602.3,229.27L602.64,229.17L602.99,229.65L603.34,232.52L606.81,221.14L607.16,221.76L607.51,221.93L608.2,225.26L608.55,224.81L608.9,225.51L609.25,225.54L609.59,227.34L610.98,229.47L611.33,227.94L612.37,226.44L612.72,228.73L613.42,225.97L613.76,228.25L614.11,227.06L614.46,227.34L614.81,228.69L615.85,231.5L616.2,229.93L616.55,231.34L616.89,229.93L617.24,230.63L617.59,231.1L617.94,230.27L618.63,231.03L618.98,230.19L619.67,228.2L620.02,226.47L621.41,227.17L621.76,226.38L622.45,222.97L622.8,224.09L623.15,225.87L625.23,228.01L625.58,231.24L625.93,232.36L626.28,230.58L626.62,230.66L626.97,231.61L627.32,231.62L627.67,229.8L628.71,227.66L629.06,226.94L629.4,226.06L629.75,227.63L630.45,225.89L630.79,226.46L631.14,228.57L632.18,231.18L632.53,229.96L632.88,230.91L633.23,229.48L633.92,230.61L634.27,230.13L634.62,228.98L635.66,224.92L636.01,226.63L636.36,227.03L636.7,229.19L637.05,228.46L640.53,226.74L641.22,228.06L641.57,226.73L641.92,227.21L642.26,226.38L643.65,227.49L644,230.06L645.39,231.2L645.74,230.59L646.43,232.81L646.78,231.62L647.13,231.12L647.48,231.81L647.82,231.64L649.21,233.86L649.56,232.88L649.91,232.56L650.26,233.3L650.6,234.95L650.95,234.41L651.3,233.47L651.65,232.07L652.34,232.28L652.69,233.35L653.04,233.24L653.39,234.26L653.73,235.48L654.08,234L654.43,234.38L655.47,237.33L655.82,237.43L656.51,236.97L656.86,237.97L657.56,239.79L657.9,239.45L658.25,237.67L659.99,238.39L660.34,237.17L660.68,237.02L661.03,236.04L662.42,237.87L662.77,237.26L663.12,236.15L664.16,234.8L664.51,236.66L665.2,236.95L665.55,234.13L665.9,233.22L666.24,233.38L666.59,234.45L667.63,236.13L667.98,233.93L668.33,233.56L668.68,234.28L669.02,236.44L670.41,237.37L670.76,235.97L674.24,238.92L674.59,238.37L674.93,237.62L675.28,237.96L675.63,237.4L675.98,237.36L676.67,233.44L677.02,235.12L677.37,235.62L678.41,236.17L678.76,234.71L679.45,234.43L679.8,237.49L680.49,239.89L680.84,238.84L681.19,237.99L681.54,238.43L681.88,239.18L682.93,241.45L683.27,240.46L683.62,240.7L683.97,239.42L685.01,241.01L685.36,240.97L686.4,240.01L686.75,240.77L687.1,240.41L687.44,240.95L687.79,238.79L688.83,237.24L689.18,239.11L690.57,240.11L690.92,241.03L691.96,243L692.31,244.02L693.7,240.09L694.05,240.34L695.44,236.95L695.79,236.93L696.83,238.18L697.18,237.54L697.52,236.58L697.87,238.06L698.22,238.05L698.57,240.04L699.96,241.23L700.3,239.05L701,240.76L701.35,239.36L702.39,238.18L702.74,237.48L703.78,240.46L704.13,239.38L704.47,238.91L707.95,243.43L709.34,242.04L709.69,243.67L710.38,243.78L710.73,243.31L711.77,243.5L712.12,243.64L712.47,243.81L712.82,242.86L714.55,240.49L714.9,241.42L715.6,242.22L715.94,241.6L716.29,243.21L718.38,245.23L718.72,245.15L719.42,245.57L719.77,243.01L721.16,245.16L721.5,244.93L721.85,243.91L722.2,244.73L722.55,244.99L722.89,243L723.24,245.38L723.59,244.27L723.94,243.79L724.28,244.8L724.98,244.46L725.33,245.4L726.02,242.94L726.37,243.35L726.72,243.33L727.06,243.35L727.41,242.22L729.15,243.48L729.5,242.74L729.84,244.21L730.19,243.8L730.54,243.73L731.24,244.39L731.58,243.96L732.28,243.29L732.63,243.66L734.71,241.9L735.06,241.33L735.41,242.5L735.75,242.18L736.1,241.74L737.14,245.22L737.49,244.81L738.19,245.89L741.66,248.27L742.7,247.07L743.05,248.67L744.44,246.41L744.79,246.06L745.83,248.17L746.18,247.5L746.53,246.51L746.87,247.13L747.22,247.36L747.92,248.76L748.26,247.99L748.61,247.84L749.31,246.19L749.66,247.86L750.7,249.26L751.05,248.19L752.09,246.89L752.44,248.37L753.13,247.52L753.48,245.8L754.17,244.44L754.52,244.74L754.87,245.36L755.56,246.81L755.91,246.58L756.26,246.28L756.95,246.61L757.3,245.01L758.34,246.38L758.69,244.99L759.39,244.99L759.73,245.89L760.43,245.66L760.78,247.09L761.12,247.42L761.47,246.45L761.82,245.56L762.17,247.23L762.86,247.91L763.21,246.68L765.29,250.64L765.64,251.09L766.68,251.35L767.03,250.77L768.42,250.6L768.77,249.95L769.47,248.88L769.81,249.37L770.16,249.52L770.51,249.7L770.86,249.03L771.55,248.56L771.9,249.51L775.72,251.76L776.07,251.61L776.42,251.48L776.76,250.35L777.11,250.28L777.46,251.52L778.15,251.34L778.5,249.83L778.85,248.86L779.2,249.56L779.54,249.97L779.89,249.79L780.24,250.49L781.63,249.81L781.98,251.62L782.67,252.23L783.02,251.92L784.76,253.19L785.1,253.36L787.19,253.89L787.54,253.62L789.28,253.74L789.62,253.39L790.67,252.87L791.01,253.72L794.14,254.58L794.49,253.23L795.53,251.64L795.88,251.83L796.23,251.86L796.92,252.04L797.27,251.16L797.62,250.26L797.96,251.53L798.66,250.98L799.01,251.55L799.35,251.39L800.4,251.27L800.74,252.16L801.09,253.43L801.44,253.16L801.79,252.37L802.83,249.7L803.18,249.71L804.91,248.2L805.26,249.34L805.61,251.52L809.09,249.95L810.13,249.12L810.48,248.44L811.87,247.31L812.21,247.77L812.91,250.21L813.26,249.59L813.6,249.7L816.04,252.81L816.38,252.35L817.43,253.17L817.77,252.51L819.51,252.36L819.86,253.17L820.21,253.81L820.55,253.31L820.9,253.05L821.6,254.24L821.94,253.55L823.68,252.37L824.03,252.53L825.07,251.58L825.42,252.42L826.11,251.97L826.46,251.79L826.81,251.32L827.16,251.61L827.51,251.76L827.85,252.6L828.2,252.34L828.55,252.29L829.59,252.17L829.94,252.7L832.37,251.02L832.72,251.01L834.11,252.35L834.46,251.92L836.19,253.78L836.54,253.55L836.89,254.16L837.24,253.84L837.58,253.62L838.97,254.7L839.32,254.09L843.14,254.58L843.49,254.43L844.88,253.33L845.23,252.8L846.62,251.19L846.97,251.34L847.32,250.75L847.66,251.1L848.01,251.75L851.14,255.82L851.49,255.83L852.53,255.16L852.88,254.1L854.61,254.03L854.96,253.63L857.74,256.96L858.09,256.57L858.44,256.31L861.22,254.08L861.56,254.52L862.61,254.97L862.95,254.87L864,255.06L864.34,255.85L865.04,255.53L865.39,255.39L866.43,255.75L866.78,256.15L867.82,254.7L868.17,254.95L869.21,255.72L869.56,255.68L870.6,254.98L870.95,255.73L871.64,255.71L871.99,254.6L872.69,254.92L873.03,253.89L877.2,254.57L877.55,254L878.59,253.34L878.94,253.8L881.03,254.4L881.37,255.07L881.72,255.28L882.07,254.69L882.42,253.96L884.16,255.93L884.5,255.44L885.55,255.27L885.89,256.21L887.28,253.25L887.63,253.61L887.98,253.81L888.33,252.74L889.37,252.82L889.72,253.54L890.06,253.69L890.41,252.76L891.45,252.94L891.8,252.12L892.84,252.71L893.19,252.22L893.54,251.81L893.89,253.14L894.93,253.3L895.28,254.92L896.67,254.76L897.01,255.79L898.06,256.04L898.4,255.61L899.79,255.81L900.14,255.53L901.53,255.87L901.88,256.45L903.27,257.54L903.62,258.14L904.31,257.21L904.66,257.55L905.01,257.53L906.05,256.72L906.4,256.51L906.75,256.37L910.22,258.45L911.61,257.2L911.96,256.8L915.09,257.95L915.43,258.45L916.48,257.57L916.82,257.2L918.91,257.66L919.26,258.51L925.51,258.87L925.86,259.06L928.64,258.38L928.99,258.18L930.73,258.23L931.07,259.07L932.46,258.98L932.81,258.59L935.24,258.94L935.59,259.02L937.33,259L937.68,258.79L940.46,258.53L943.93,259.22L947.76,260.23L948.1,259.64L950.19,259.83L950.54,259.83L951.93,260.21L952.27,260.5L954.01,260L954.36,259.99L955.4,260.05L955.75,259.03L957.14,259.29L957.49,259.08L958.88,258.98L959.22,259.87L960.96,260.02L961.31,260.12L964.44,260.37L964.79,260.48L971.74,259.98L972.08,259.98L974.17,260.22L977.64,260.67L980.43,260.59L980.77,260.59L982.51,260.55L982.86,260.46L990.5,260.13L990.85,259.31L992.94,259.09L993.28,259.5L993.98,259.49L994.33,260.21L995.37,259.86L995.72,259.92L999.54,260.27L999.89,260.33L1001.97,260.54L1002.32,260.69L1007.19,260.07L1007.53,260.52L1016.22,260.87L1016.57,261.07L1026.65,261.32L1027,261.19L1038.47,260.83L1038.81,260.88L1056.89,261.32L1057.23,260.67L1073.57,261.4L1073.91,261.25L1090.6,261.59L1090.94,261.47L1096.16,261.59L1096.51,261.63L1109.02,261.56L1112.49,261.68L1126.39,261.58L1126.74,261.6L1130.22,261.61L1130.56,261.74L1138.56,261.74L1138.91,261.67L1169.84,261.85L1170.18,261.82L1192.08,261.91L1192.43,261.95L1345,262.14" style="vector-effect: non-scaling-stroke; fill: none; stroke: rgb(31, 119, 180); stroke-opacity: 1; stroke-width: 2px; opacity: 1;"/></g><g class="points"/><g class="text"/></g></g></g><g class="overplot"/><path class="xlines-above crisp" d="M0,0" style="fill: none;"/><path class="ylines-above crisp" d="M0,0" style="fill: none;"/><g class="overlines-above"/><g class="xaxislayer-above"><g class="xtick"><text text-anchor="middle" x="0" y="349" transform="translate(230.3,0)" style="font-family: 'Open Sans', verdana, arial, sans-serif; font-size: 12px; fill: rgb(68, 68, 68); fill-opacity: 1; white-space: pre;">500</text></g><g class="xtick"><text text-anchor="middle" x="0" y="349" transform="translate(404.07,0)" style="font-family: 'Open Sans', verdana, arial, sans-serif; font-size: 12px; fill: rgb(68, 68, 68); fill-opacity: 1; white-space: pre;">1000</text></g><g class="xtick"><text text-anchor="middle" x="0" y="349" transform="translate(577.84,0)" style="font-family: 'Open Sans', verdana, arial, sans-serif; font-size: 12px; fill: rgb(68, 68, 68); fill-opacity: 1; white-space: pre;">1500</text></g><g class="xtick"><text text-anchor="middle" x="0" y="349" transform="translate(751.61,0)" style="font-family: 'Open Sans', verdana, arial, sans-serif; font-size: 12px; fill: rgb(68, 68, 68); fill-opacity: 1; white-space: pre;">2000</text></g><g class="xtick"><text text-anchor="middle" x="0" y="349" transform="translate(925.39,0)" style="font-family: 'Open Sans', verdana, arial, sans-serif; font-size: 12px; fill: rgb(68, 68, 68); fill-opacity: 1; white-space: pre;">2500</text></g><g class="xtick"><text text-anchor="middle" x="0" y="349" transform="translate(1099.16,0)" style="font-family: 'Open Sans', verdana, arial, sans-serif; font-size: 12px; fill: rgb(68, 68, 68); fill-opacity: 1; white-space: pre;">3000</text></g><g class="xtick"><text text-anchor="middle" x="0" y="349" transform="translate(1272.93,0)" style="font-family: 'Open Sans', verdana, arial, sans-serif; font-size: 12px; fill: rgb(68, 68, 68); fill-opacity: 1; white-space: pre;">3500</text></g></g><g class="yaxislayer-above"><g class="ytick"><text text-anchor="end" x="59" y="4.199999999999999" transform="translate(0,322.59)" style="font-family: 'Open Sans', verdana, arial, sans-serif; font-size: 12px; fill: rgb(68, 68, 68); fill-opacity: 1; white-space: pre;">0</text></g><g class="ytick"><text text-anchor="end" x="59" y="4.199999999999999" transform="translate(0,262.64)" style="font-family: 'Open Sans', verdana, arial, sans-serif; font-size: 12px; fill: rgb(68, 68, 68); fill-opacity: 1; white-space: pre;">1</text></g><g class="ytick"><text text-anchor="end" x="59" y="4.199999999999999" transform="translate(0,202.69)" style="font-family: 'Open Sans', verdana, arial, sans-serif; font-size: 12px; fill: rgb(68, 68, 68); fill-opacity: 1; white-space: pre;">2</text></g><g class="ytick"><text text-anchor="end" x="59" y="4.199999999999999" transform="translate(0,142.74)" style="font-family: 'Open Sans', verdana, arial, sans-serif; font-size: 12px; fill: rgb(68, 68, 68); fill-opacity: 1; white-space: pre;">3</text></g><g class="ytick"><text text-anchor="end" x="59" y="4.199999999999999" transform="translate(0,82.78999999999999)" style="font-family: 'Open Sans', verdana, arial, sans-serif; font-size: 12px; fill: rgb(68, 68, 68); fill-opacity: 1; white-space: pre;">4</text></g></g><g class="overaxes-above"/></g></g><g class="polarlayer"/><g class="ternarylayer"/><g class="geolayer"/><g class="funnelarealayer"/><g class="pielayer"/><g class="treemaplayer"/><g class="sunburstlayer"/><g class="glimages"/><defs id="topdefs-60467c"><g class="clips"/></defs><g class="layer-above"><g class="imagelayer"/><g class="shapelayer"/></g><g class="infolayer"><g class="g-gtitle"/><g class="g-xtitle"/><g class="g-ytitle"/></g></svg>