<svg class="main-svg" xmlns="http://www.w3.org/2000/svg" xmlns:xlink="http://www.w3.org/1999/xlink" width="524" height="501" style="" viewBox="0 0 524 501"><rect x="0" y="0" width="524" height="501" style="fill: rgb(255, 255, 255); fill-opacity: 1;"/><defs id="defs-8161c2"><g class="clips"><clipPath id="clip8161c2xyplot" class="plotclip"><rect width="404" height="381"/></clipPath><clipPath class="axesclip" id="clip8161c2x"><rect x="60" y="0" width="404" height="501"/></clipPath><clipPath class="axesclip" id="clip8161c2y"><rect x="0" y="60" width="524" height="381"/></clipPath><clipPath class="axesclip" id="clip8161c2xy"><rect x="60" y="60" width="404" height="381"/></clipPath></g><g class="gradients"/></defs><g class="bglayer"/><g class="layer-below"><g class="imagelayer"/><g class="shapelayer"/></g><g class="cartesianlayer"><g class="subplot xy"><g class="layer-subplot"><g class="shapelayer"/><g class="imagelayer"/></g><g class="gridlayer"><g class="x"><path class="xgrid crisp" transform="translate(130.6,0)" d="M0,60v381" style="stroke: rgb(238, 238, 238); stroke-opacity: 1; stroke-width: 1px;"/><path class="xgrid crisp" transform="translate(209.05,0)" d="M0,60v381" style="stroke: rgb(238, 238, 238); stroke-opacity: 1; stroke-width: 1px;"/><path class="xgrid crisp" transform="translate(287.5,0)" d="M0,60v381" style="stroke: rgb(238, 238, 238); stroke-opacity: 1; stroke-width: 1px;"/><path class="xgrid crisp" transform="translate(365.94,0)" d="M0,60v381" style="stroke: rgb(238, 238, 238); stroke-opacity: 1; stroke-width: 1px;"/><path class="xgrid crisp" transform="translate(444.39,0)" d="M0,60v381" style="stroke: rgb(238, 238, 238); stroke-opacity: 1; stroke-width: 1px;"/></g><g class="y"><path class="ygrid crisp" transform="translate(0,357.72)" d="M60,0h404" style="stroke: rgb(238, 238, 238); stroke-opacity: 1; stroke-width: 1px;"/><path class="ygrid crisp" transform="translate(0,288.06)" d="M60,0h404" style="stroke: rgb(238, 238, 238); stroke-opacity: 1; stroke-width: 1px;"/><path class="ygrid crisp" transform="translate(0,218.39)" d="M60,0h404" style="stroke: rgb(238, 238, 238); stroke-opacity: 1; stroke-width: 1px;"/><path class="ygrid crisp" transform="translate(0,148.72)" d="M60,0h404" style="stroke: rgb(238, 238, 238); stroke-opacity: 1; stroke-width: 1px;"/><path class="ygrid crisp" transform="translate(0,79.05)" d="M60,0h404" style="stroke: rgb(238, 238, 238); stroke-opacity: 1; stroke-width: 1px;"/></g></g><g class="zerolinelayer"><path class="yzl zl crisp" transform="translate(0,427.39)" d="M60,0h404" style="stroke: rgb(68, 68, 68); stroke-opacity: 1; stroke-width: 1px;"/></g><path class="xlines-below"/><path class="ylines-below"/><g class="overlines-below"/><g class="xaxislayer-below"/><g class="yaxislayer-below"/><g class="overaxes-below"/><g class="plot" transform="translate(60,60)" clip-path="url('#clip8161c2xyplot')"><g class="scatterlayer mlayer"><g class="trace scatter trace3f3643" style="stroke-miterlimit: 2; opacity: 1;"><g class="fills"/><g class="errorbars"/><g class="lines"><path class="js-line" d="M0,361.95L0.78,361.95L1.57,356.51L2.35,353.79L3.14,356.51L3.92,359.23L4.71,359.23L5.49,348.34L6.28,348.34L7.06,356.51L7.84,353.79L8.63,345.62L9.41,361.95L10.2,359.23L10.98,342.9L11.77,354.33L19.61,345.62L21.18,342.9L21.97,345.62L22.75,353.79L23.53,351.06L25.1,351.06L25.89,340.18L26.67,353.79L27.46,353.79L28.24,353.79L29.03,351.06L30.59,334.74L31.38,332.56L39.22,329.29L40.01,332.01L40.79,337.46L41.58,337.46L42.36,340.18L43.15,340.18L43.93,334.74L44.71,345.62L45.5,329.29L46.28,329.29L47.07,332.01L47.85,329.29L48.64,315.69L49.42,342.9L50.99,336.91L58.83,321.13L59.62,342.9L60.4,342.9L61.97,296.64L62.76,318.41L63.54,329.29L64.33,307.52L65.11,329.29L65.9,326.57L66.68,321.13L67.46,302.08L68.25,318.41L69.03,293.91L69.82,285.75L70.6,310.79L78.45,304.8L79.23,307.52L80.02,307.52L80.8,315.69L81.58,299.36L82.37,304.8L83.15,310.24L83.94,285.75L84.72,299.36L85.51,285.75L86.29,280.31L87.08,291.19L87.86,283.03L88.64,302.08L89.43,274.86L90.21,280.31L98.06,263.98L98.84,244.93L99.63,269.42L100.41,263.98L101.2,296.64L101.98,269.42L102.77,285.75L103.55,263.98L104.33,307.52L105.12,269.42L105.9,263.98L106.69,283.03L108.26,234.04L109.04,261.26L109.83,280.31L117.67,234.04L118.45,247.65L119.24,228.6L120.02,217.71L120.81,231.32L122.38,250.37L123.16,242.21L123.95,242.21L124.73,231.32L125.51,228.6L126.3,217.71L127.08,212.27L127.87,236.76L128.65,220.44L129.44,223.7L137.28,201.39L138.07,187.78L138.85,160.56L139.63,195.94L140.42,204.11L141.2,176.89L142.77,179.61L143.56,206.83L145.13,193.22L145.91,185.06L146.7,152.4L147.48,160.56L148.26,168.73L149.05,167.1L156.89,138.79L157.68,157.84L158.46,155.12L159.25,119.74L160.82,141.51L161.6,144.24L163.17,114.3L163.95,146.96L164.74,136.07L165.52,146.96L166.31,187.78L167.09,130.63L167.88,138.79L168.66,167.1L176.5,114.3L177.29,97.97L178.07,119.74L178.86,81.64L180.43,103.41L181.21,84.36L182,84.36L182.78,89.81L183.57,92.53L184.35,78.92L185.13,100.69L185.92,92.53L186.7,70.76L187.49,111.58L188.27,106.14L196.12,65.31L196.9,97.97L197.69,73.48L198.47,73.48L199.25,68.04L200.04,84.36L200.82,62.59L201.61,78.92L202.39,70.76L203.18,62.59L203.96,62.59L205.53,65.31L206.31,81.64L207.1,62.59L207.88,80.01L215.73,68.04L216.51,48.99L217.3,54.43L218.08,54.43L218.87,40.82L219.65,87.09L221.22,40.82L222,51.71L222.79,48.99L223.57,70.76L224.36,54.43L225.14,62.59L225.93,57.15L226.71,57.15L227.5,45.18L235.34,51.71L236.12,46.26L236.91,54.43L237.69,38.1L238.48,40.82L240.05,40.82L240.83,35.38L241.62,48.99L242.4,43.54L243.18,48.99L243.97,48.99L244.75,35.38L245.54,40.82L246.32,40.82L247.11,49.53L254.95,35.38L255.74,19.05L256.52,38.1L257.3,38.1L258.09,32.66L258.87,32.66L259.66,29.94L260.44,32.66L262.01,29.94L262.8,43.54L264.37,27.21L265.15,32.66L266.72,36.47L274.56,40.82L276.13,24.49L276.92,24.49L277.7,35.38L278.49,27.21L279.27,27.21L280.05,21.77L281.62,35.38L282.41,21.77L283.19,29.94L283.98,29.94L284.76,27.21L285.55,35.38L286.33,27.76L294.17,32.66L294.96,19.05L295.74,19.05L296.53,24.49L297.31,19.05L298.1,27.21L298.88,24.49L299.67,29.94L300.45,24.49L301.23,35.38L302.02,21.77L302.8,27.21L303.59,24.49L304.37,27.21L305.16,24.49L305.94,19.05L313.79,24.49L314.57,24.49L315.36,19.05L316.92,24.49L317.71,21.77L318.49,21.77L319.28,27.21L320.06,24.49L320.85,27.21L321.63,19.05L322.42,21.77L323.2,19.05L323.98,24.49L325.55,19.05L333.4,19.05L334.18,21.77L334.97,21.77L335.75,19.05L336.54,19.05L337.32,19.05L338.1,24.49L340.46,19.05L341.24,21.77L342.03,27.21L342.81,21.77L344.38,21.77L345.17,19.05L353.01,19.05L353.79,24.49L354.58,24.49L355.36,19.05L356.15,27.21L356.93,19.05L357.72,21.77L358.5,19.05L360.07,21.77L360.85,19.05L361.64,19.05L362.42,21.77L363.99,21.77L364.78,19.05L373.41,19.05L374.19,21.77L374.97,19.05L375.76,21.77L376.54,24.49L377.33,21.77L378.9,21.77L379.68,24.49L380.47,19.05L381.25,24.49L382.03,19.05L382.82,21.77L383.6,19.05L384.39,19.05L393.8,19.05L394.59,24.49L396.16,19.05L396.94,19.05L400.08,19.05L400.86,21.77L401.65,19.05L402.43,24.49L403.22,19.05L404,19.05" style="vector-effect: non-scaling-stroke; fill: none; stroke: rgb(31, 119, 180); stroke-opacity: 1; stroke-width: 2px; opacity: 1;"/></g><g class="points"/><g class="text"/></g></g></g><g class="overplot"/><path class="xlines-above crisp" d="M0,0" style="fill: none;"/><path class="ylines-above crisp" d="M0,0" style="fill: none;"/><g class="overlines-above"/><g class="xaxislayer-above"><g class="xtick"><text text-anchor="middle" x="0" y="454" transform="translate(130.6,0)" style="font-family: 'Open Sans', verdana, arial, sans-serif; font-size: 12px; fill: rgb(68, 68, 68); fill-opacity: 1; white-space: pre;">100</text></g><g class="xtick"><text text-anchor="middle" x="0" y="454" transform="translate(209.05,0)" style="font-family: 'Open Sans', verdana, arial, sans-serif; font-size: 12px; fill: rgb(68, 68, 68); fill-opacity: 1; white-space: pre;">200</text></g><g class="xtick"><text text-anchor="middle" x="0" y="454" transform="translate(287.5,0)" style="font-family: 'Open Sans', verdana, arial, sans-serif; font-size: 12px; fill: rgb(68, 68, 68); fill-opacity: 1; white-space: pre;">300</text></g><g class="xtick"><text text-anchor="middle" x="0" y="454" transform="translate(365.94,0)" style="font-family: 'Open Sans', verdana, arial, sans-serif; font-size: 12px; fill: rgb(68, 68, 68); fill-opacity: 1; white-space: pre;">400</text></g><g class="xtick"><text text-anchor="middle" x="0" y="454" transform="translate(444.39,0)" style="font-family: 'Open Sans', verdana, arial, sans-serif; font-size: 12px; fill: rgb(68, 68, 68); fill-opacity: 1; white-space: pre;">500</text></g></g><g class="yaxislayer-above"><g class="ytick"><text text-anchor="end" x="59" y="4.199999999999999" transform="translate(0,427.39)" style="font-family: 'Open Sans', verdana, arial, sans-serif; font-size: 12px; fill: rgb(68, 68, 68); fill-opacity: 1; white-space: pre;">0</text></g><g class="ytick"><text text-anchor="end" x="59" y="4.199999999999999" transform="translate(0,357.72)" style="font-family: 'Open Sans', verdana, arial, sans-serif; font-size: 12px; fill: rgb(68, 68, 68); fill-opacity: 1; white-space: pre;">0.2</text></g><g class="ytick"><text text-anchor="end" x="59" y="4.199999999999999" transform="translate(0,288.06)" style="font-family: 'Open Sans', verdana, arial, sans-serif; font-size: 12px; fill: rgb(68, 68, 68); fill-opacity: 1; white-space: pre;">0.4</text></g><g class="ytick"><text text-anchor="end" x="59" y="4.199999999999999" transform="translate(0,218.39)" style="font-family: 'Open Sans', verdana, arial, sans-serif; font-size: 12px; fill: rgb(68, 68, 68); fill-opacity: 1; white-space: pre;">0.6</text></g><g class="ytick"><text text-anchor="end" x="59" y="4.199999999999999" transform="translate(0,148.72)" style="font-family: 'Open Sans', verdana, arial, sans-serif; font-size: 12px; fill: rgb(68, 68, 68); fill-opacity: 1; white-space: pre;">0.8</text></g><g class="ytick"><text text-anchor="end" x="59" y="4.199999999999999" transform="translate(0,79.05)" style="font-family: 'Open Sans', verdana, arial, sans-serif; font-size: 12px; fill: rgb(68, 68, 68); fill-opacity: 1; white-space: pre;">1</text></g></g><g class="overaxes-above"/></g></g><g class="polarlayer"/><g class="ternarylayer"/><g class="geolayer"/><g class="funnelarealayer"/><g class="pielayer"/><g class="treemaplayer"/><g class="sunburstlayer"/><g class="glimages"/><defs id="topdefs-8161c2"><g class="clips"/></defs><g class="layer-above"><g class="imagelayer"/><g class="shapelayer"/></g><g class="infolayer"><g class="g-gtitle"><text class="gtitle" x="262" y="30" text-anchor="middle" dy="0em" style="font-family: 'Open Sans', verdana, arial, sans-serif; font-size: 17px; fill: rgb(68, 68, 68); opacity: 1; font-weight: normal; white-space: pre;">train accuracy</text></g><g class="g-xtitle"><text class="xtitle" x="262" y="493" text-anchor="middle" style="font-family: 'Open Sans', verdana, arial, sans-serif; font-size: 14px; fill: rgb(68, 68, 68); opacity: 1; font-weight: normal; white-space: pre;">steps</text></g><g class="g-ytitle"><text class="ytitle" transform="rotate(-90,22,250.5)" x="22" y="250.5" text-anchor="middle" style="font-family: 'Open Sans', verdana, arial, sans-serif; font-size: 14px; fill: rgb(68, 68, 68); opacity: 1; font-weight: normal; white-space: pre;">pct</text></g></g></svg>