<svg class="main-svg" xmlns="http://www.w3.org/2000/svg" xmlns:xlink="http://www.w3.org/1999/xlink" width="1465" height="336" style="" viewBox="0 0 1465 336"><rect x="0" y="0" width="1465" height="336" style="fill: rgb(255, 255, 255); fill-opacity: 1;"/><defs id="defs-17f695"><g class="clips"><clipPath id="clip17f695xyplot" class="plotclip"><rect width="1345" height="216"/></clipPath><clipPath class="axesclip" id="clip17f695x"><rect x="60" y="0" width="1345" height="336"/></clipPath><clipPath class="axesclip" id="clip17f695y"><rect x="0" y="60" width="1465" height="216"/></clipPath><clipPath class="axesclip" id="clip17f695xy"><rect x="60" y="60" width="1345" height="216"/></clipPath></g><g class="gradients"/></defs><g class="bglayer"/><g class="layer-below"><g class="imagelayer"/><g class="shapelayer"/></g><g class="cartesianlayer"><g class="subplot xy"><g class="layer-subplot"><g class="shapelayer"/><g class="imagelayer"/></g><g class="gridlayer"><g class="x"><path class="xgrid crisp" transform="translate(230.3,0)" d="M0,60v216" style="stroke: rgb(238, 238, 238); stroke-opacity: 1; stroke-width: 1px;"/><path class="xgrid crisp" transform="translate(404.07,0)" d="M0,60v216" style="stroke: rgb(238, 238, 238); stroke-opacity: 1; stroke-width: 1px;"/><path class="xgrid crisp" transform="translate(577.84,0)" d="M0,60v216" style="stroke: rgb(238, 238, 238); stroke-opacity: 1; stroke-width: 1px;"/><path class="xgrid crisp" transform="translate(751.61,0)" d="M0,60v216" style="stroke: rgb(238, 238, 238); stroke-opacity: 1; stroke-width: 1px;"/><path class="xgrid crisp" transform="translate(925.39,0)" d="M0,60v216" style="stroke: rgb(238, 238, 238); stroke-opacity: 1; stroke-width: 1px;"/><path class="xgrid crisp" transform="translate(1099.16,0)" d="M0,60v216" style="stroke: rgb(238, 238, 238); stroke-opacity: 1; stroke-width: 1px;"/><path class="xgrid crisp" transform="translate(1272.93,0)" d="M0,60v216" style="stroke: rgb(238, 238, 238); stroke-opacity: 1; stroke-width: 1px;"/></g><g class="y"><path class="ygrid crisp" transform="translate(0,226.32)" d="M60,0h1345" style="stroke: rgb(238, 238, 238); stroke-opacity: 1; stroke-width: 1px;"/><path class="ygrid crisp" transform="translate(0,187.44)" d="M60,0h1345" style="stroke: rgb(238, 238, 238); stroke-opacity: 1; stroke-width: 1px;"/><path class="ygrid crisp" transform="translate(0,148.56)" d="M60,0h1345" style="stroke: rgb(238, 238, 238); stroke-opacity: 1; stroke-width: 1px;"/><path class="ygrid crisp" transform="translate(0,109.68)" d="M60,0h1345" style="stroke: rgb(238, 238, 238); stroke-opacity: 1; stroke-width: 1px;"/><path class="ygrid crisp" transform="translate(0,70.8)" d="M60,0h1345" style="stroke: rgb(238, 238, 238); stroke-opacity: 1; stroke-width: 1px;"/></g></g><g class="zerolinelayer"><path class="yzl zl crisp" transform="translate(0,265.2)" d="M60,0h1345" style="stroke: rgb(68, 68, 68); stroke-opacity: 1; stroke-width: 1px;"/></g><path class="xlines-below"/><path class="ylines-below"/><g class="overlines-below"/><g class="xaxislayer-below"/><g class="yaxislayer-below"/><g class="overaxes-below"/><g class="plot" transform="translate(60,60)" clip-path="url('#clip17f695xyplot')"><g class="scatterlayer mlayer"><g class="trace scatter trace735f6c" style="stroke-miterlimit: 2; opacity: 1;"><g class="fills"/><g class="errorbars"/><g class="lines"><path class="js-line" d="M0,205.2L23.63,205.2L23.98,193.05L25.02,205.2L25.37,193.05L26.41,205.2L26.76,205.2L29.19,205.2L29.54,180.9L30.24,205.2L33.71,205.2L34.06,205.2L34.41,193.05L34.75,193.05L35.1,205.2L36.49,205.2L36.84,193.05L37.53,205.2L37.88,180.9L38.58,205.2L38.93,193.05L39.97,205.2L40.32,205.2L40.66,205.2L41.01,193.05L42.05,205.2L42.4,205.2L44.83,205.2L45.18,193.05L45.88,205.2L46.22,193.05L46.57,205.2L46.92,193.05L47.27,193.05L47.61,205.2L47.96,168.75L48.66,205.2L49,193.05L50.05,205.2L50.39,205.2L50.74,193.05L51.09,205.2L51.44,205.2L52.83,205.2L53.17,193.05L54.22,205.2L54.56,193.05L54.91,193.05L55.26,205.2L55.61,193.05L55.95,205.2L56.3,205.2L57.34,205.2L57.69,193.05L58.74,205.2L59.08,180.9L60.13,205.2L60.47,193.05L61.52,205.2L61.86,205.2L62.56,180.9L62.91,205.2L67.42,205.2L67.77,193.05L68.12,205.2L68.47,193.05L68.81,193.05L69.51,193.05L69.86,205.2L70.2,193.05L70.55,205.2L70.9,205.2L71.94,205.2L72.29,193.05L72.98,205.2L73.33,193.05L74.37,205.2L74.72,193.05L75.42,205.2L75.76,193.05L76.46,205.2L76.81,193.05L77.16,193.05L77.5,205.2L78.2,180.9L78.55,205.2L79.59,205.2L79.94,193.05L80.98,205.2L81.33,205.2L82.02,193.05L82.37,205.2L83.06,205.2L83.41,180.9L84.11,205.2L84.45,193.05L85.15,205.2L85.5,193.05L85.84,193.05L86.19,205.2L86.89,205.2L87.23,193.05L87.93,205.2L88.28,193.05L88.62,193.05L88.97,205.2L89.32,193.05L89.67,205.2L90.01,205.2L90.36,205.2L90.71,193.05L91.75,205.2L92.1,205.2L92.79,193.05L93.14,205.2L93.49,205.2L93.84,180.9L94.88,205.2L95.23,205.2L96.97,205.2L97.31,193.05L97.66,177.43L101.14,205.2L102.53,180.9L102.87,205.2L103.92,205.2L104.26,193.05L104.96,205.2L105.31,193.05L106,193.05L106.35,205.2L107.04,205.2L107.39,193.05L107.74,180.9L108.09,205.2L108.43,205.2L108.78,180.9L109.82,205.2L110.17,205.2L111.21,205.2L111.56,193.05L111.91,205.2L112.26,193.05L112.6,193.05L112.95,205.2L113.3,193.05L113.65,193.05L114.69,205.2L115.04,205.2L116.43,180.9L116.78,193.05L117.12,193.05L117.47,205.2L119.21,205.2L119.56,193.05L120.6,205.2L120.95,193.05L121.29,193.05L121.64,180.9L122.68,205.2L123.03,193.05L123.38,193.05L123.73,205.2L124.42,205.2L124.77,193.05L125.81,205.2L126.16,205.2L126.51,205.2L126.85,193.05L127.2,168.75L127.55,205.2L127.9,180.9L128.24,205.2L128.59,205.2L129.29,205.2L129.63,193.05L129.98,193.05L130.33,180.9L131.37,205.2L134.85,180.9L135.2,205.2L135.54,193.05L135.89,180.9L136.24,180.9L136.59,193.05L137.63,205.2L137.98,205.2L138.67,180.9L139.02,205.2L139.37,205.2L139.71,193.05L140.06,193.05L140.41,205.2L140.76,205.2L141.1,168.75L142.15,205.2L142.49,205.2L143.54,193.05L143.88,205.2L144.23,205.2L144.58,193.05L145.62,205.2L145.97,193.05L146.66,205.2L147.01,180.9L148.05,205.2L148.4,180.9L149.44,205.2L149.79,205.2L151.18,205.2L151.53,193.05L151.88,205.2L152.22,180.9L153.27,205.2L153.61,205.2L154.66,205.2L155.01,193.05L155.35,180.9L155.7,205.2L156.74,180.9L157.09,193.05L158.13,205.2L158.48,193.05L158.83,193.05L159.18,205.2L159.87,205.2L160.22,193.05L160.57,180.9L160.91,205.2L162.65,205.2L163,193.05L164.04,193.05L164.39,205.2L169.25,205.2L169.6,193.05L169.95,205.2L170.3,193.05L170.64,193.05L171.34,193.05L171.69,180.9L172.73,193.05L173.08,193.05L174.12,205.2L174.47,205.2L175.51,193.05L175.86,205.2L176.55,180.9L176.9,205.2L177.94,205.2L178.29,193.05L178.64,193.05L178.99,205.2L179.33,205.2L179.68,180.9L180.72,205.2L181.07,205.2L182.11,193.05L182.46,193.05L183.16,180.9L183.5,193.05L183.85,205.2L184.2,193.05L184.55,180.9L185.24,205.2L185.59,193.05L186.28,205.2L186.63,193.05L186.98,180.9L187.33,205.2L187.67,193.05L188.02,205.2L188.37,205.2L188.72,193.05L189.06,205.2L189.41,205.2L190.11,205.2L190.45,193.05L191.5,205.2L191.84,193.05L192.54,205.2L192.89,180.9L194.28,205.2L194.63,205.2L194.97,205.2L195.32,168.75L195.67,205.2L196.02,180.9L196.36,193.05L196.71,193.05L197.06,205.2L197.75,205.2L198.1,193.05L198.45,193.05L198.8,205.2L202.27,205.2L202.62,180.9L202.97,168.75L203.31,193.05L204.01,193.05L204.36,205.2L205.75,205.2L206.09,193.05L206.44,193.05L206.79,205.2L207.14,205.2L207.48,193.05L208.18,193.05L208.53,180.9L209.22,205.2L209.57,180.9L210.96,205.2L211.31,205.2L211.66,193.05L212,205.2L212.35,205.2L213.05,205.2L213.39,180.9L213.74,205.2L214.09,168.75L214.78,193.05L215.13,168.75L216.17,205.2L216.52,205.2L217.56,180.9L217.91,205.2L218.26,193.05L218.61,205.2L218.95,205.2L219.65,168.75L220,193.05L220.34,205.2L220.69,180.9L221.04,180.9L221.39,168.75L222.43,168.75L222.78,180.9L223.47,205.2L223.82,168.75L224.51,205.2L224.86,180.9L225.21,180.9L225.56,193.05L226.95,193.05L227.29,205.2L228.34,193.05L228.68,205.2L229.73,168.75L230.07,193.05L230.77,193.05L231.12,205.2L231.47,205.2L231.81,168.75L232.16,168.75L232.51,177.43L235.98,156.6L236.33,180.9L236.68,193.05L237.03,168.75L238.07,205.2L238.42,168.75L238.76,180.9L239.11,156.6L240.15,205.2L240.5,180.9L241.89,205.2L242.24,193.05L242.59,168.75L242.93,193.05L243.28,205.2L244.32,180.9L244.67,180.9L245.02,193.05L245.37,168.75L245.71,168.75L246.06,193.05L246.76,180.9L247.1,205.2L247.8,180.9L248.15,193.05L248.49,193.05L248.84,156.6L249.19,193.05L249.54,193.05L250.58,156.6L250.93,193.05L251.62,168.75L251.97,193.05L252.32,205.2L252.67,180.9L253.01,205.2L253.36,180.9L253.71,193.05L254.4,180.9L254.75,205.2L255.45,180.9L255.79,193.05L256.14,193.05L256.49,205.2L257.18,180.9L257.53,205.2L257.88,144.45L258.23,205.2L258.57,156.6L258.92,193.05L259.27,180.9L259.62,168.75L260.31,205.2L260.66,156.6L261.7,193.05L262.05,180.9L262.4,144.45L263.44,205.2L263.79,180.9L264.83,193.05L265.18,193.05L265.52,156.6L265.87,205.2L266.22,177.43L269.7,193.05L270.04,156.6L270.39,180.9L270.74,193.05L271.09,205.2L271.43,193.05L271.78,193.05L272.13,205.2L272.48,132.3L273.17,193.05L273.52,156.6L273.87,156.6L274.21,193.05L274.56,168.75L274.91,180.9L275.26,205.2L276.65,156.6L276.99,156.6L277.34,193.05L277.69,156.6L278.04,180.9L278.38,205.2L278.73,168.75L279.43,193.05L279.77,168.75L280.82,205.2L281.16,132.3L281.86,205.2L282.21,193.05L282.55,156.6L283.25,205.2L283.6,156.6L283.94,193.05L284.29,180.9L284.64,168.75L284.99,180.9L285.33,156.6L285.68,205.2L286.03,180.9L286.38,156.6L286.72,193.05L287.07,168.75L287.42,180.9L287.77,193.05L288.11,168.75L288.46,193.05L288.81,180.9L289.16,168.75L289.85,193.05L290.2,180.9L291.24,180.9L291.59,168.75L292.63,193.05L292.98,180.9L293.68,156.6L294.02,205.2L294.72,168.75L295.07,180.9L295.41,180.9L295.76,180.9L296.11,168.75L296.8,193.05L297.15,180.9L297.85,144.45L298.19,168.75L298.54,193.05L298.89,168.75L299.24,180.9L299.58,168.75L299.93,177.43L303.41,168.75L303.75,168.75L304.1,180.9L304.45,193.05L304.8,180.9L305.14,168.75L305.84,193.05L306.19,168.75L306.53,168.75L306.88,180.9L307.23,120.15L307.58,180.9L307.93,193.05L308.27,180.9L308.62,193.05L308.97,144.45L310.01,205.2L310.36,180.9L311.05,144.45L311.4,193.05L312.79,144.45L313.14,180.9L313.49,156.6L313.83,180.9L314.18,193.05L314.53,193.05L314.88,180.9L315.22,180.9L315.57,168.75L315.92,193.05L316.27,180.9L316.61,168.75L316.96,168.75L317.31,205.2L317.66,156.6L318,168.75L318.35,193.05L319.39,168.75L319.74,180.9L320.09,180.9L320.44,132.3L321.48,193.05L321.83,205.2L323.56,168.75L323.91,168.75L324.26,156.6L324.61,180.9L324.95,193.05L325.3,180.9L325.65,168.75L326.34,144.45L326.69,193.05L327.04,180.9L327.39,193.05L327.74,193.05L328.43,156.6L328.78,168.75L329.13,180.9L329.47,168.75L329.82,144.45L330.86,180.9L331.21,156.6L332.25,180.9L332.6,168.75L332.95,168.75L333.3,132.3L333.64,121.89L337.12,168.75L337.81,193.05L338.16,168.75L339.2,193.05L339.55,156.6L340.25,193.05L340.59,168.75L340.94,156.6L341.29,205.2L341.64,168.75L341.98,180.9L342.33,180.9L342.68,193.05L343.03,144.45L343.37,193.05L343.72,180.9L344.07,144.45L345.11,180.9L345.46,180.9L346.16,180.9L346.5,168.75L346.85,205.2L347.2,156.6L347.55,156.6L347.89,193.05L348.94,156.6L349.28,168.75L349.63,168.75L349.98,132.3L350.33,180.9L350.67,132.3L351.02,156.6L351.37,193.05L352.41,144.45L352.76,180.9L353.8,144.45L354.15,156.6L354.5,180.9L354.84,168.75L355.19,156.6L356.23,180.9L356.58,132.3L357.28,168.75L357.62,132.3L358.32,168.75L358.67,144.45L359.36,180.9L359.71,168.75L360.4,132.3L360.75,156.6L361.1,193.05L361.45,180.9L361.79,180.9L362.14,168.75L362.49,193.05L363.53,144.45L363.88,168.75L364.23,168.75L364.57,132.3L365.27,180.9L365.62,156.6L366.31,120.15L366.66,193.05L367.01,156.6L367.36,177.43L370.83,156.6L371.87,180.9L372.22,168.75L372.57,168.75L372.92,132.3L373.26,132.3L373.61,168.75L373.96,156.6L374.31,193.05L374.65,144.45L375,180.9L375.35,156.6L375.7,156.6L376.04,168.75L376.39,180.9L376.74,168.75L377.09,144.45L377.78,132.3L378.13,144.45L378.82,168.75L379.17,144.45L379.52,193.05L379.87,180.9L380.21,144.45L381.6,168.75L381.95,144.45L382.65,193.05L382.99,180.9L383.34,168.75L383.69,144.45L384.04,168.75L384.39,156.6L384.73,144.45L385.08,168.75L386.12,83.7L386.47,156.6L386.82,180.9L387.17,156.6L387.51,144.45L388.21,144.45L388.56,156.6L389.6,156.6L389.95,132.3L390.64,168.75L390.99,120.15L391.34,180.9L391.68,168.75L392.03,156.6L392.38,156.6L392.73,180.9L393.42,132.3L393.77,144.45L394.12,156.6L394.46,180.9L394.81,168.75L395.16,168.75L395.51,156.6L395.85,193.05L396.55,144.45L396.9,168.75L397.24,144.45L397.59,156.6L397.94,168.75L398.29,168.75L398.63,144.45L399.33,193.05L399.68,156.6L400.02,108L400.37,144.45L400.72,156.6L401.07,177.43L404.54,132.3L406.63,180.9L406.98,156.6L407.67,144.45L408.02,193.05L409.06,132.3L409.41,193.05L409.76,132.3L410.1,168.75L410.45,144.45L410.8,144.45L411.15,120.15L411.49,180.9L411.84,132.3L412.19,144.45L412.54,168.75L412.88,156.6L413.23,144.45L413.58,168.75L413.93,120.15L416.01,193.05L416.36,168.75L417.75,108L418.1,144.45L418.44,95.85L418.79,156.6L419.14,108L419.49,132.3L419.83,168.75L420.18,120.15L420.53,144.45L420.88,144.45L421.22,108L421.57,168.75L421.92,108L422.27,144.45L422.61,168.75L422.96,132.3L423.31,168.75L423.66,156.6L424.01,193.05L424.35,144.45L424.7,144.45L425.05,95.85L425.4,95.85L425.74,120.15L426.44,168.75L426.79,132.3L427.48,193.05L427.83,168.75L428.18,120.15L428.52,180.9L428.87,168.75L429.22,132.3L429.91,180.9L430.26,144.45L430.61,168.75L430.96,144.45L431.3,108L432.35,120.15L432.69,193.05L433.04,132.3L433.39,168.75L433.74,168.75L434.43,168.75L434.78,149.66L438.25,120.15L438.6,168.75L439.3,168.75L439.64,144.45L439.99,180.9L440.34,168.75L440.69,156.6L441.38,120.15L441.73,156.6L442.08,132.3L442.43,156.6L442.77,144.45L443.47,168.75L443.82,120.15L444.51,168.75L444.86,95.85L445.9,193.05L446.25,156.6L447.29,132.3L447.64,132.3L447.99,168.75L448.33,144.45L448.68,95.85L449.03,83.7L449.38,156.6L449.72,193.05L450.07,132.3L450.77,156.6L451.11,132.3L451.46,132.3L451.81,95.85L452.85,168.75L453.2,132.3L453.89,108L454.24,120.15L454.59,156.6L455.63,120.15L455.98,132.3L456.33,132.3L456.67,168.75L457.02,120.15L457.37,108L457.72,168.75L458.76,132.3L459.11,144.45L460.15,83.7L460.5,156.6L461.19,108L461.54,180.9L461.89,108L462.24,168.75L462.58,144.45L462.93,144.45L463.28,95.85L464.32,180.9L464.67,180.9L465.71,120.15L466.06,144.45L466.41,156.6L466.75,144.45L467.1,108L467.8,108L468.14,144.45L468.49,149.66L471.97,168.75L473.01,120.15L473.36,156.6L473.7,156.6L474.05,132.3L474.4,108L474.75,193.05L475.09,180.9L475.44,95.85L475.79,168.75L476.48,156.6L476.83,120.15L477.18,156.6L477.53,120.15L477.87,120.15L478.22,132.3L478.57,71.55L478.92,180.9L479.26,108L479.61,108L480.31,132.3L480.66,120.15L481.35,120.15L481.7,108L482.05,95.85L482.39,144.45L482.74,120.15L483.09,132.3L483.44,132.3L484.13,132.3L484.48,83.7L485.17,144.45L485.52,83.7L486.91,156.6L487.26,108L487.61,120.15L487.95,108L488.3,108L488.65,95.85L489,108L489.34,156.6L489.69,83.7L490.04,95.85L490.39,144.45L490.73,120.15L491.08,132.3L491.43,144.45L491.78,168.75L492.12,144.45L492.47,144.45L492.82,132.3L493.17,168.75L494.21,108L494.56,120.15L494.9,144.45L495.25,108L495.6,132.3L495.95,132.3L496.29,132.3L496.64,120.15L496.99,144.45L497.34,95.85L497.68,144.45L498.03,95.85L498.38,132.3L499.07,132.3L499.42,108L500.47,156.6L500.81,95.85L501.16,132.3L501.51,108L501.86,120.15L502.2,149.66L505.68,132.3L507.07,83.7L507.42,83.7L507.76,144.45L508.11,83.7L508.46,95.85L509.15,120.15L509.5,108L509.85,108L510.2,120.15L511.59,71.55L511.93,95.85L512.28,83.7L512.63,95.85L512.98,95.85L514.02,156.6L514.37,108L514.71,144.45L515.06,120.15L515.41,108L515.76,108L516.1,83.7L516.45,108L516.8,59.4L517.84,120.15L518.19,120.15L518.89,71.55L519.23,120.15L519.58,132.3L519.93,108L520.28,95.85L520.62,120.15L520.97,120.15L521.32,132.3L521.67,132.3L522.01,120.15L522.36,144.45L522.71,108L523.06,71.55L523.4,120.15L523.75,144.45L524.1,132.3L524.45,95.85L524.79,83.7L525.14,120.15L525.49,95.85L525.84,156.6L526.18,95.85L526.53,120.15L526.88,132.3L527.23,83.7L527.57,108L527.92,95.85L528.27,95.85L528.62,144.45L529.66,95.85L530.01,108L530.35,59.4L530.7,108L531.05,132.3L532.09,108L532.44,144.45L533.48,108L533.83,144.45L534.87,59.4L535.22,120.15L535.57,83.7L535.91,94.11L539.39,132.3L540.09,83.7L540.43,108L540.78,120.15L541.48,59.4L541.82,83.7L542.17,132.3L542.52,95.85L542.87,108L543.21,132.3L543.91,71.55L544.26,120.15L544.95,108L545.3,144.45L545.99,95.85L546.34,71.55L547.38,95.85L547.73,71.55L548.43,108L548.77,95.85L549.12,47.25L549.47,120.15L550.16,108L550.51,156.6L551.55,95.85L551.9,108L552.6,132.3L552.94,108L553.64,108L553.99,83.7L554.33,120.15L554.68,95.85L555.03,95.85L555.38,95.85L555.72,120.15L556.07,156.6L556.42,95.85L557.46,144.45L557.81,132.3L558.51,108L558.85,120.15L559.2,120.15L559.55,83.7L559.9,83.7L560.24,71.55L560.59,120.15L560.94,108L561.29,108L561.63,83.7L561.98,168.75L563.02,95.85L563.37,83.7L563.72,59.4L564.07,132.3L565.46,83.7L565.8,156.6L566.5,83.7L566.85,132.3L567.54,83.7L567.89,132.3L568.24,144.45L568.58,47.25L568.93,108L569.28,71.55L569.63,94.11L573.1,132.3L573.45,120.15L573.8,120.15L574.14,59.4L574.49,132.3L574.84,59.4L575.19,71.55L575.53,59.4L575.88,120.15L576.58,83.7L576.93,95.85L577.27,83.7L577.62,59.4L577.97,95.85L578.32,120.15L578.66,95.85L579.01,35.1L579.71,95.85L580.05,71.55L581.1,108L581.44,83.7L582.14,59.4L582.49,71.55L582.83,95.85L583.18,47.25L583.88,120.15L584.22,47.25L584.57,108L584.92,71.55L585.27,95.85L586.31,71.55L586.66,120.15L587.7,71.55L588.05,59.4L589.44,120.15L589.78,108L590.83,95.85L591.17,95.85L591.52,59.4L591.87,120.15L593.26,71.55L593.61,108L593.95,95.85L594.3,47.25L595,132.3L595.34,108L595.69,71.55L596.04,71.55L596.39,59.4L596.74,120.15L597.08,71.55L597.43,71.55L598.47,120.15L598.82,132.3L599.52,47.25L599.86,95.85L600.56,47.25L600.91,71.55L601.25,71.55L601.6,35.1L601.95,59.4L602.3,95.85L603.34,38.57L606.81,95.85L607.16,95.85L607.51,83.7L607.86,47.25L608.2,59.4L608.55,95.85L609.59,59.4L609.94,47.25L610.29,120.15L610.64,59.4L610.98,83.7L611.33,95.85L611.68,59.4L612.03,95.85L612.37,71.55L612.72,22.95L613.76,95.85L614.11,71.55L614.81,59.4L615.16,83.7L615.85,59.4L616.2,95.85L616.55,59.4L616.89,83.7L617.24,83.7L617.94,83.7L618.28,47.25L619.33,108L619.67,132.3L620.72,83.7L621.06,83.7L621.41,47.25L621.76,59.4L622.11,132.3L622.8,47.25L623.15,59.4L623.5,71.55L623.84,120.15L624.19,47.25L624.89,108L625.23,83.7L625.58,59.4L626.28,95.85L626.62,59.4L627.32,83.7L627.67,59.4L628.01,120.15L628.36,59.4L628.71,83.7L629.06,47.25L629.4,95.85L629.75,71.55L630.1,83.7L630.45,83.7L630.79,83.7L631.14,71.55L631.49,35.1L631.84,47.25L632.18,71.55L632.53,71.55L632.88,83.7L633.23,108L633.57,59.4L633.92,83.7L634.27,35.1L635.31,95.85L635.66,83.7L636.01,83.7L636.36,47.25L636.7,47.25L637.05,66.34L640.53,120.15L640.87,95.85L641.22,71.55L641.57,83.7L641.92,108L642.96,71.55L643.31,83.7L644.35,59.4L644.7,71.55L645.04,95.85L645.39,35.1L645.74,83.7L646.09,22.95L647.13,71.55L647.48,47.25L647.82,59.4L648.17,22.95L648.52,83.7L648.87,59.4L649.21,71.55L649.56,59.4L649.91,95.85L650.6,47.25L650.95,83.7L651.3,83.7L651.65,59.4L651.99,47.25L652.34,71.55L653.39,35.1L653.73,47.25L654.78,59.4L655.12,47.25L655.47,35.1L655.82,71.55L657.21,22.95L657.56,83.7L657.9,83.7L658.25,71.55L658.95,71.55L659.29,83.7L659.64,35.1L659.99,71.55L660.34,47.25L660.68,47.25L661.03,83.7L661.38,83.7L661.73,108L662.07,35.1L662.42,59.4L662.77,71.55L663.12,71.55L663.46,83.7L664.51,22.95L664.85,71.55L665.2,83.7L665.55,71.55L665.9,35.1L666.24,71.55L666.59,59.4L666.94,47.25L667.98,83.7L668.33,47.25L668.68,83.7L669.02,59.4L669.37,71.55L669.72,83.7L670.07,59.4L670.41,35.1L670.76,66.34L674.24,35.1L674.59,83.7L675.98,35.1L676.32,108L677.71,47.25L678.06,71.55L678.41,59.4L678.76,120.15L679.8,47.25L680.15,35.1L680.49,22.95L680.84,83.7L681.19,83.7L681.54,47.25L681.88,59.4L682.23,35.1L683.27,59.4L683.62,47.25L683.97,59.4L684.32,35.1L684.66,59.4L685.01,22.95L685.36,35.1L685.71,108L686.05,22.95L686.4,71.55L686.75,59.4L687.44,35.1L687.79,95.85L689.53,35.1L689.88,47.25L690.22,35.1L690.57,47.25L690.92,47.25L691.27,47.25L691.61,83.7L692.31,35.1L692.66,59.4L693.01,71.55L693.35,71.55L693.7,35.1L694.05,22.95L694.4,83.7L694.74,35.1L695.09,83.7L695.44,83.7L695.79,47.25L696.13,59.4L696.48,83.7L697.52,59.4L697.87,47.25L698.22,47.25L698.57,35.1L698.91,59.4L699.26,47.25L699.61,47.25L700.3,95.85L700.65,10.8L701.35,83.7L701.69,59.4L702.04,22.95L702.39,71.55L702.74,59.4L703.08,22.95L704.13,83.7L704.47,38.57L708.3,35.1L708.64,71.55L708.99,35.1L709.34,71.55L709.69,59.4L710.03,47.25L710.38,59.4L710.73,71.55L711.08,71.55L711.43,59.4L711.77,59.4L712.12,47.25L712.47,35.1L712.82,71.55L713.16,83.7L713.51,47.25L714.21,95.85L714.55,47.25L714.9,22.95L715.25,47.25L715.6,35.1L716.99,83.7L717.33,59.4L718.38,22.95L718.72,71.55L719.42,22.95L719.77,83.7L720.46,22.95L720.81,71.55L721.5,35.1L721.85,59.4L722.55,22.95L722.89,95.85L723.94,35.1L724.28,47.25L724.63,59.4L724.98,22.95L725.33,22.95L725.67,83.7L726.72,47.25L727.06,47.25L727.41,47.25L727.76,22.95L729.15,71.55L729.5,83.7L729.84,22.95L730.19,47.25L730.54,83.7L731.24,35.1L731.58,59.4L732.63,35.1L732.97,83.7L734.02,47.25L734.36,47.25L734.71,35.1L735.06,71.55L735.41,10.8L735.75,47.25L736.1,59.4L736.8,22.95L737.14,59.4L737.49,59.4L737.84,22.95L738.19,38.57L741.66,59.4L743.05,10.8L743.4,35.1L743.75,22.95L744.09,47.25L744.44,47.25L744.79,59.4L745.14,22.95L745.48,47.25L745.83,47.25L746.18,83.7L746.53,47.25L746.87,35.1L747.92,10.8L748.26,59.4L748.61,47.25L748.96,71.55L750.35,22.95L750.7,35.1L752.09,71.55L752.44,22.95L753.48,83.7L753.83,35.1L754.17,59.4L754.52,47.25L754.87,22.95L755.56,47.25L755.91,22.95L756.95,95.85L757.3,59.4L757.65,59.4L758,10.8L759.04,59.4L759.39,47.25L759.73,35.1L760.08,47.25L760.43,47.25L760.78,47.25L761.12,35.1L761.82,71.55L762.17,22.95L762.51,22.95L762.86,35.1L763.21,83.7L763.56,22.95L764.6,35.1L764.95,35.1L765.29,47.25L765.64,35.1L765.99,10.8L766.68,47.25L767.03,35.1L767.38,10.8L767.73,47.25L768.07,22.95L768.42,35.1L768.77,71.55L769.81,35.1L770.16,59.4L770.51,35.1L770.86,59.4L771.2,47.25L771.55,47.25L771.9,10.8L775.37,22.95L775.72,35.1L776.07,47.25L776.42,22.95L776.76,59.4L777.11,22.95L777.46,22.95L778.5,59.4L778.85,35.1L779.54,22.95L779.89,35.1L781.28,35.1L781.63,22.95L781.98,22.95L782.32,35.1L782.67,10.8L783.02,47.25L783.37,10.8L783.71,35.1L784.06,35.1L785.45,10.8L785.8,10.8L787.19,35.1L787.54,35.1L787.89,10.8L788.23,35.1L788.58,35.1L789.28,10.8L789.62,47.25L789.97,71.55L790.32,10.8L790.67,35.1L791.01,10.8L791.36,22.95L792.4,10.8L792.75,22.95L793.1,35.1L793.45,10.8L794.49,59.4L794.84,47.25L795.88,10.8L796.23,22.95L796.57,22.95L796.92,35.1L797.27,59.4L797.62,47.25L797.96,10.8L798.31,47.25L798.66,35.1L799.01,22.95L799.35,10.8L799.7,22.95L800.05,22.95L800.4,22.95L800.74,35.1L801.09,22.95L801.44,35.1L801.79,71.55L802.13,95.85L802.48,35.1L802.83,10.8L803.18,35.1L803.52,47.25L803.87,47.25L804.22,22.95L805.26,47.25L805.61,38.57L809.09,47.25L809.43,35.1L810.13,47.25L810.48,35.1L810.82,59.4L811.17,22.95L811.52,47.25L811.87,35.1L812.21,10.8L813.26,59.4L813.6,35.1L814.3,22.95L814.65,47.25L816.04,22.95L816.38,47.25L816.73,47.25L817.08,10.8L818.47,47.25L818.82,22.95L819.16,10.8L819.51,47.25L819.86,10.8L820.21,22.95L820.55,35.1L820.9,47.25L821.25,22.95L821.94,35.1L822.29,22.95L822.99,47.25L823.33,10.8L823.68,10.8L824.03,35.1L824.38,35.1L824.72,22.95L826.11,47.25L826.46,35.1L826.81,47.25L827.16,35.1L827.51,10.8L827.85,10.8L828.2,35.1L828.55,47.25L828.9,35.1L829.24,22.95L830.63,47.25L830.98,35.1L831.33,35.1L831.68,47.25L832.02,22.95L832.37,35.1L832.72,35.1L833.07,10.8L833.41,47.25L833.76,47.25L834.11,22.95L834.8,22.95L835.15,35.1L835.5,47.25L835.85,35.1L836.19,22.95L836.54,10.8L836.89,22.95L837.24,22.95L837.58,22.95L837.93,10.8L838.28,10.8L838.63,22.95L839.32,66.34L842.8,47.25L843.84,22.95L844.19,47.25L845.58,22.95L845.93,35.1L846.62,47.25L846.97,22.95L847.32,47.25L847.66,22.95L848.01,10.8L848.36,10.8L848.71,22.95L849.05,22.95L849.4,10.8L849.75,10.8L850.1,35.1L850.44,35.1L850.79,10.8L851.49,10.8L851.83,22.95L852.53,22.95L852.88,35.1L853.57,22.95L853.92,35.1L854.61,10.8L854.96,35.1L856,10.8L856.35,22.95L856.7,35.1L857.05,10.8L857.74,10.8L858.09,35.1L859.13,35.1L859.48,22.95L859.83,22.95L860.17,35.1L860.52,10.8L860.87,35.1L861.22,35.1L862.26,10.8L862.61,47.25L863.3,47.25L863.65,10.8L865.04,35.1L865.39,22.95L865.74,35.1L866.08,22.95L866.43,22.95L866.78,10.8L867.13,47.25L867.47,47.25L867.82,10.8L868.52,10.8L868.86,22.95L869.21,10.8L869.56,22.95L869.91,47.25L871.3,10.8L871.64,22.95L871.99,47.25L872.34,10.8L872.69,22.95L873.03,66.34L876.51,59.4L876.86,35.1L877.9,22.95L878.25,35.1L878.59,10.8L878.94,35.1L879.29,22.95L879.98,35.1L880.33,22.95L881.03,22.95L881.37,10.8L882.42,59.4L882.76,10.8L883.11,10.8L883.46,22.95L883.81,10.8L884.16,22.95L884.5,35.1L884.85,10.8L885.2,22.95L885.55,47.25L885.89,10.8L886.24,35.1L886.59,22.95L886.94,35.1L887.28,22.95L887.63,22.95L888.33,47.25L888.67,22.95L889.02,22.95L889.37,47.25L889.72,22.95L890.06,47.25L890.41,35.1L891.45,22.95L891.8,47.25L892.15,10.8L892.5,22.95L892.84,35.1L893.19,22.95L893.54,59.4L894.23,22.95L894.58,35.1L894.93,35.1L895.97,22.95L896.32,22.95L897.01,22.95L897.36,10.8L897.71,10.8L898.06,35.1L898.4,35.1L898.75,22.95L899.1,35.1L899.45,22.95L899.79,22.95L900.14,47.25L900.49,22.95L900.84,10.8L901.88,22.95L902.23,10.8L902.57,35.1L902.92,10.8L903.27,10.8L904.31,47.25L904.66,10.8L905.01,10.8L905.36,35.1L906.4,22.95L906.75,38.57L910.57,22.95L910.92,35.1L911.61,35.1L911.96,22.95L912.65,22.95L913,10.8L914.39,35.1L914.74,10.8L915.43,10.8L915.78,35.1L916.13,10.8L916.48,22.95L916.82,47.25L917.87,10.8L918.21,10.8L918.91,10.8L919.26,22.95L919.95,10.8L920.3,22.95L920.65,22.95L920.99,10.8L922.04,10.8L922.39,22.95L923.43,10.8L923.78,22.95L924.82,10.8L925.17,10.8L926.21,10.8L926.56,22.95L927.25,10.8L927.6,35.1L928.29,10.8L928.64,35.1L929.34,10.8L929.68,22.95L930.73,10.8L931.07,10.8L931.77,10.8L932.12,22.95L932.81,10.8L933.16,22.95L934.2,10.8L934.55,10.8L935.24,10.8L935.59,22.95L935.94,35.1L936.29,22.95L936.63,10.8L936.98,10.8L937.33,22.95L937.68,22.95L938.02,10.8L938.37,10.8L938.72,35.1L939.76,10.8L940.11,35.1L940.46,10.8L943.93,10.8L945.67,10.8L946.02,22.95L947.06,10.8L947.41,10.8L947.76,10.8L948.1,35.1L949.15,10.8L949.49,10.8L954.71,10.8L955.05,22.95L955.4,10.8L955.75,35.1L956.79,10.8L957.14,10.8L957.49,22.95L957.83,10.8L958.18,10.8L958.53,22.95L958.88,10.8L959.22,10.8L960.27,10.8L960.61,22.95L961.66,10.8L962.01,10.8L962.35,10.8L962.7,22.95L963.74,10.8L964.09,10.8L965.48,10.8L965.83,22.95L966.52,10.8L966.87,22.95L967.22,22.95L967.57,10.8L970,10.8L970.35,22.95L971.39,10.8L971.74,10.8L972.78,10.8L973.13,22.95L974.17,10.8L977.64,10.8L977.99,10.8L978.34,22.95L979.38,10.8L979.73,10.8L981.82,10.8L982.16,22.95L983.21,10.8L983.55,10.8L987.72,10.8L988.07,22.95L989.11,10.8L989.46,10.8L989.81,22.95L990.16,10.8L990.5,10.8L991.2,22.95L991.55,10.8L993.63,10.8L993.98,22.95L995.02,10.8L995.37,10.8L997.11,10.8L997.45,22.95L997.8,22.95L998.15,10.8L1000.58,10.8L1000.93,35.1L1001.97,10.8L1002.32,10.8L1003.71,10.8L1004.06,22.95L1005.1,10.8L1005.45,10.8L1005.8,22.95L1006.14,10.8L1006.49,10.8L1015.18,10.8L1015.53,22.95L1016.57,10.8L1016.92,10.8L1019.7,10.8L1020.05,22.95L1021.09,10.8L1021.44,10.8L1033.6,10.8L1033.95,22.95L1034.99,10.8L1035.34,10.8L1040.2,10.8L1040.55,22.95L1041.59,10.8L1045.07,10.8L1056.89,10.8L1057.23,22.95L1058.28,10.8L1058.62,10.8L1068.35,10.8L1068.7,22.95L1069.74,10.8L1070.09,10.8L1073.57,10.8L1073.91,22.95L1074.96,10.8L1075.3,10.8L1281.05,10.8L1281.4,22.95L1282.44,10.8L1282.79,10.8L1289.05,10.8L1289.39,22.95L1290.44,10.8L1290.78,10.8L1345,10.8" style="vector-effect: non-scaling-stroke; fill: none; stroke: rgb(31, 119, 180); stroke-opacity: 1; stroke-width: 2px; opacity: 1;"/></g><g class="points"/><g class="text"/></g></g></g><g class="overplot"/><path class="xlines-above crisp" d="M0,0" style="fill: none;"/><path class="ylines-above crisp" d="M0,0" style="fill: none;"/><g class="overlines-above"/><g class="xaxislayer-above"><g class="xtick"><text text-anchor="middle" x="0" y="289" transform="translate(230.3,0)" style="font-family: 'Open Sans', verdana, arial, sans-serif; font-size: 12px; fill: rgb(68, 68, 68); fill-opacity: 1; white-space: pre;">500</text></g><g class="xtick"><text text-anchor="middle" x="0" y="289" transform="translate(404.07,0)" style="font-family: 'Open Sans', verdana, arial, sans-serif; font-size: 12px; fill: rgb(68, 68, 68); fill-opacity: 1; white-space: pre;">1000</text></g><g class="xtick"><text text-anchor="middle" x="0" y="289" transform="translate(577.84,0)" style="font-family: 'Open Sans', verdana, arial, sans-serif; font-size: 12px; fill: rgb(68, 68, 68); fill-opacity: 1; white-space: pre;">1500</text></g><g class="xtick"><text text-anchor="middle" x="0" y="289" transform="translate(751.61,0)" style="font-family: 'Open Sans', verdana, arial, sans-serif; font-size: 12px; fill: rgb(68, 68, 68); fill-opacity: 1; white-space: pre;">2000</text></g><g class="xtick"><text text-anchor="middle" x="0" y="289" transform="translate(925.39,0)" style="font-family: 'Open Sans', verdana, arial, sans-serif; font-size: 12px; fill: rgb(68, 68, 68); fill-opacity: 1; white-space: pre;">2500</text></g><g class="xtick"><text text-anchor="middle" x="0" y="289" transform="translate(1099.16,0)" style="font-family: 'Open Sans', verdana, arial, sans-serif; font-size: 12px; fill: rgb(68, 68, 68); fill-opacity: 1; white-space: pre;">3000</text></g><g class="xtick"><text text-anchor="middle" x="0" y="289" transform="translate(1272.93,0)" style="font-family: 'Open Sans', verdana, arial, sans-serif; font-size: 12px; fill: rgb(68, 68, 68); fill-opacity: 1; white-space: pre;">3500</text></g></g><g class="yaxislayer-above"><g class="ytick"><text text-anchor="end" x="59" y="4.199999999999999" transform="translate(0,265.2)" style="font-family: 'Open Sans', verdana, arial, sans-serif; font-size: 12px; fill: rgb(68, 68, 68); fill-opacity: 1; white-space: pre;">0</text></g><g class="ytick"><text text-anchor="end" x="59" y="4.199999999999999" transform="translate(0,226.32)" style="font-family: 'Open Sans', verdana, arial, sans-serif; font-size: 12px; fill: rgb(68, 68, 68); fill-opacity: 1; white-space: pre;">0.2</text></g><g class="ytick"><text text-anchor="end" x="59" y="4.199999999999999" transform="translate(0,187.44)" style="font-family: 'Open Sans', verdana, arial, sans-serif; font-size: 12px; fill: rgb(68, 68, 68); fill-opacity: 1; white-space: pre;">0.4</text></g><g class="ytick"><text text-anchor="end" x="59" y="4.199999999999999" transform="translate(0,148.56)" style="font-family: 'Open Sans', verdana, arial, sans-serif; font-size: 12px; fill: rgb(68, 68, 68); fill-opacity: 1; white-space: pre;">0.6</text></g><g class="ytick"><text text-anchor="end" x="59" y="4.199999999999999" transform="translate(0,109.68)" style="font-family: 'Open Sans', verdana, arial, sans-serif; font-size: 12px; fill: rgb(68, 68, 68); fill-opacity: 1; white-space: pre;">0.8</text></g><g class="ytick"><text text-anchor="end" x="59" y="4.199999999999999" transform="translate(0,70.8)" style="font-family: 'Open Sans', verdana, arial, sans-serif; font-size: 12px; fill: rgb(68, 68, 68); fill-opacity: 1; white-space: pre;">1</text></g></g><g class="overaxes-above"/></g></g><g class="polarlayer"/><g class="ternarylayer"/><g class="geolayer"/><g class="funnelarealayer"/><g class="pielayer"/><g class="treemaplayer"/><g class="sunburstlayer"/><g class="glimages"/><defs id="topdefs-17f695"><g class="clips"/></defs><g class="layer-above"><g class="imagelayer"/><g class="shapelayer"/></g><g class="infolayer"><g class="g-gtitle"/><g class="g-xtitle"/><g class="g-ytitle"/></g></svg>